{
	"accessors" : 
	[
		{
			"bufferView" : 2,
			"byteOffset" : 0,
			"componentType" : 5126,
			"count" : 3048,
			"max" : 
			[
				1,
				1,
				1,
				1
			],
			"min" : 
			[
				0,
				0.1011451631784439,
				0.1275297701358795,
				1
			],
			"name" : "accessor_color_m0-PolyPaper17_-109284",
			"type" : "VEC4"
		},
		{
			"bufferView" : 2,
			"byteOffset" : 48768,
			"componentType" : 5126,
			"count" : 3048,
			"max" : 
			[
				1,
				1,
				1,
				1
			],
			"min" : 
			[
				0,
				0.1011451631784439,
				0.1275297701358795,
				1
			],
			"name" : "accessor_color_m1-PolyPaper15_-109290",
			"type" : "VEC4"
		},
		{
			"bufferView" : 2,
			"byteOffset" : 97536,
			"componentType" : 5126,
			"count" : 6948,
			"max" : 
			[
				1,
				1,
				1,
				1
			],
			"min" : 
			[
				0,
				0.3111805319786072,
				0.07805658876895905,
				1
			],
			"name" : "accessor_color_m2-PolyPaper21_-109296",
			"type" : "VEC4"
		},
		{
			"bufferView" : 2,
			"byteOffset" : 208704,
			"componentType" : 5126,
			"count" : 1424,
			"max" : 
			[
				0.3488648533821106,
				0.4368127584457397,
				0.3488648533821106,
				1
			],
			"min" : 
			[
				0,
				0.3111805319786072,
				0.07805658876895905,
				1
			],
			"name" : "accessor_color_m3-PolyPaper22_-109302",
			"type" : "VEC4"
		},
		{
			"bufferView" : 0,
			"byteOffset" : 0,
			"componentType" : 5123,
			"count" : 4572,
			"max" : 
			[
				3047
			],
			"min" : 
			[
				0
			],
			"name" : "accessor_indices_0_m0-PolyPaper17_-109284",
			"type" : "SCALAR"
		},
		{
			"bufferView" : 0,
			"byteOffset" : 9144,
			"componentType" : 5123,
			"count" : 4572,
			"max" : 
			[
				3047
			],
			"min" : 
			[
				0
			],
			"name" : "accessor_indices_0_m1-PolyPaper15_-109290",
			"type" : "SCALAR"
		},
		{
			"bufferView" : 0,
			"byteOffset" : 18288,
			"componentType" : 5123,
			"count" : 10422,
			"max" : 
			[
				6947
			],
			"min" : 
			[
				0
			],
			"name" : "accessor_indices_0_m2-PolyPaper21_-109296",
			"type" : "SCALAR"
		},
		{
			"bufferView" : 0,
			"byteOffset" : 39132,
			"componentType" : 5123,
			"count" : 2136,
			"max" : 
			[
				1423
			],
			"min" : 
			[
				0
			],
			"name" : "accessor_indices_0_m3-PolyPaper22_-109302",
			"type" : "SCALAR"
		},
		{
			"bufferView" : 1,
			"byteOffset" : 36576,
			"componentType" : 5126,
			"count" : 3048,
			"max" : 
			[
				1,
				1,
				1
			],
			"min" : 
			[
				-1,
				-1,
				-1
			],
			"name" : "accessor_normal_m0-PolyPaper17_-109284",
			"type" : "VEC3"
		},
		{
			"bufferView" : 1,
			"byteOffset" : 109728,
			"componentType" : 5126,
			"count" : 3048,
			"max" : 
			[
				1,
				1,
				1
			],
			"min" : 
			[
				-1,
				-1,
				-1
			],
			"name" : "accessor_normal_m1-PolyPaper15_-109290",
			"type" : "VEC3"
		},
		{
			"bufferView" : 1,
			"byteOffset" : 229680,
			"componentType" : 5126,
			"count" : 6948,
			"max" : 
			[
				1,
				1,
				1
			],
			"min" : 
			[
				-1,
				-1,
				-1
			],
			"name" : "accessor_normal_m2-PolyPaper21_-109296",
			"type" : "VEC3"
		},
		{
			"bufferView" : 1,
			"byteOffset" : 330144,
			"componentType" : 5126,
			"count" : 1424,
			"max" : 
			[
				1,
				1,
				1
			],
			"min" : 
			[
				-1,
				-1,
				-1
			],
			"name" : "accessor_normal_m3-PolyPaper22_-109302",
			"type" : "VEC3"
		},
		{
			"bufferView" : 1,
			"byteOffset" : 0,
			"componentType" : 5126,
			"count" : 3048,
			"max" : 
			[
				-0.0399855,
				1.29008,
				0.7599966
			],
			"min" : 
			[
				-0.9499858,
				1.01008,
				-0.3400037
			],
			"name" : "accessor_position_m0-PolyPaper17_-109284",
			"type" : "VEC3"
		},
		{
			"bufferView" : 1,
			"byteOffset" : 73152,
			"componentType" : 5126,
			"count" : 3048,
			"max" : 
			[
				-0.1566524,
				1.302728,
				0.6999432
			],
			"min" : 
			[
				-0.8633192,
				1.039924,
				-0.2373299
			],
			"name" : "accessor_position_m1-PolyPaper15_-109290",
			"type" : "VEC3"
		},
		{
			"bufferView" : 1,
			"byteOffset" : 146304,
			"componentType" : 5126,
			"count" : 6948,
			"max" : 
			[
				0.6299505,
				1.426165,
				1.30993
			],
			"min" : 
			[
				-1.049957,
				0.8799244000000001,
				-1.01507
			],
			"name" : "accessor_position_m2-PolyPaper21_-109296",
			"type" : "VEC3"
		},
		{
			"bufferView" : 1,
			"byteOffset" : 313056,
			"componentType" : 5126,
			"count" : 1424,
			"max" : 
			[
				0.7800898000000001,
				1.456218,
				0.9500678
			],
			"min" : 
			[
				-1.61991,
				0.7849684,
				0.09006777000000001
			],
			"name" : "accessor_position_m3-PolyPaper22_-109302",
			"type" : "VEC3"
		}
	],
	"asset" : 
	{
		"copyright" : "Unknown",
		"generator" : "glTF 1-to-2 Upgrader for Google Blocks",
		"version" : "2.0"
	},
	"bufferViews" : 
	[
		{
			"buffer" : 0,
			"byteLength" : 43404,
			"byteOffset" : 0,
			"name" : "ushortBufferView",
			"target" : 34963
		},
		{
			"buffer" : 0,
			"byteLength" : 347232,
			"byteOffset" : 43404,
			"byteStride" : 12,
			"name" : "vec3BufferView",
			"target" : 34962
		},
		{
			"buffer" : 0,
			"byteLength" : 231488,
			"byteOffset" : 390636,
			"byteStride" : 16,
			"name" : "vec4BufferView",
			"target" : 34962
		}
	],
	"buffers" : 
	[
		{
			"byteLength" : 622124,
			"name" : "model",
			"uri" : "model.bin"
		}
	],
	"materials" : 
	[
		{
			"alphaMode" : "OPAQUE",
			"doubleSided" : false,
			"name" : "BlocksPaper",
			"pbrMetallicRoughness" : 
			{
				"baseColorFactor" : 
				[
					1,
					1,
					1,
					1
				],
				"metallicFactor" : 0,
				"roughnessFactor" : 0.6
			}
		},
		{
			"alphaMode" : "BLEND",
			"doubleSided" : false,
			"name" : "BlocksGlass",
			"pbrMetallicRoughness" : 
			{
				"baseColorFactor" : 
				[
					0.2,
					0.2,
					1,
					0.3
				],
				"metallicFactor" : 1,
				"roughnessFactor" : 0.4
			}
		},
		{
			"alphaMode" : "OPAQUE",
			"doubleSided" : true,
			"name" : "BlocksGem",
			"pbrMetallicRoughness" : 
			{
				"baseColorFactor" : 
				[
					1,
					0.4,
					1,
					1
				],
				"metallicFactor" : 0,
				"roughnessFactor" : 0.1
			}
		}
	],
	"meshes" : 
	[
		{
			"name" : "mesh_m0-PolyPaper17_-109284",
			"primitives" : 
			[
				{
					"attributes" : 
					{
						"COLOR_0" : 0,
						"NORMAL" : 8,
						"POSITION" : 12
					},
					"indices" : 4,
					"material" : 0,
					"mode" : 4
				}
			]
		},
		{
			"name" : "mesh_m1-PolyPaper15_-109290",
			"primitives" : 
			[
				{
					"attributes" : 
					{
						"COLOR_0" : 1,
						"NORMAL" : 9,
						"POSITION" : 13
					},
					"indices" : 5,
					"material" : 0,
					"mode" : 4
				}
			]
		},
		{
			"name" : "mesh_m2-PolyPaper21_-109296",
			"primitives" : 
			[
				{
					"attributes" : 
					{
						"COLOR_0" : 2,
						"NORMAL" : 10,
						"POSITION" : 14
					},
					"indices" : 6,
					"material" : 0,
					"mode" : 4
				}
			]
		},
		{
			"name" : "mesh_m3-PolyPaper22_-109302",
			"primitives" : 
			[
				{
					"attributes" : 
					{
						"COLOR_0" : 3,
						"NORMAL" : 11,
						"POSITION" : 15
					},
					"indices" : 7,
					"material" : 0,
					"mode" : 4
				}
			]
		}
	],
	"nodes" : 
	[
		{
			"matrix" : 
			[
				1,
				0,
				0,
				0,
				0,
				1,
				0,
				0,
				0,
				0,
				1,
				0,
				0,
				0,
				0,
				1
			],
			"mesh" : 0,
			"name" : "node_MeshObject-998917120-PolyPaper17"
		},
		{
			"matrix" : 
			[
				1,
				0,
				0,
				0,
				0,
				1,
				0,
				0,
				0,
				0,
				1,
				0,
				0,
				0,
				0,
				1
			],
			"mesh" : 3,
			"name" : "node_MeshObject1289399296-PolyPaper22"
		},
		{
			"matrix" : 
			[
				1,
				0,
				0,
				0,
				0,
				1,
				0,
				0,
				0,
				0,
				1,
				0,
				0,
				0,
				0,
				1
			],
			"mesh" : 1,
			"name" : "node_MeshObject145241088-PolyPaper15"
		},
		{
			"matrix" : 
			[
				1,
				0,
				0,
				0,
				0,
				1,
				0,
				0,
				0,
				0,
				1,
				0,
				0,
				0,
				0,
				1
			],
			"mesh" : 2,
			"name" : "node_MeshObject717320192-PolyPaper21"
		}
	],
	"scene" : 0,
	"scenes" : 
	[
		{
			"extras" : {},
			"name" : "defaultScene",
			"nodes" : 
			[
				0,
				2,
				3,
				1
			]
		}
	]
}