{
	"accessors" : 
	[
		{
			"bufferView" : 2,
			"byteOffset" : 0,
			"componentType" : 5126,
			"count" : 10588,
			"max" : 
			[
				1,
				1,
				1,
				1
			],
			"min" : 
			[
				0,
				0.006584956776350737,
				0,
				1
			],
			"name" : "accessor_color_m0-PolyPaper23_-181310",
			"type" : "VEC4"
		},
		{
			"bufferView" : 2,
			"byteOffset" : 169408,
			"componentType" : 5126,
			"count" : 684,
			"max" : 
			[
				1,
				1,
				1,
				1
			],
			"min" : 
			[
				1,
				1,
				1,
				1
			],
			"name" : "accessor_color_m1-PolyGlass24_-181316",
			"type" : "VEC4"
		},
		{
			"bufferView" : 2,
			"byteOffset" : 180352,
			"componentType" : 5126,
			"count" : 3832,
			"max" : 
			[
				1,
				1,
				1,
				1
			],
			"min" : 
			[
				0,
				0.006584956776350737,
				0.006584956776350737,
				1
			],
			"name" : "accessor_color_m2-PolyPaper17_-181322",
			"type" : "VEC4"
		},
		{
			"bufferView" : 2,
			"byteOffset" : 241664,
			"componentType" : 5126,
			"count" : 3196,
			"max" : 
			[
				1,
				1,
				1,
				1
			],
			"min" : 
			[
				0,
				0.006584956776350737,
				0,
				1
			],
			"name" : "accessor_color_m3-PolyPaper11_-181328",
			"type" : "VEC4"
		},
		{
			"bufferView" : 0,
			"byteOffset" : 0,
			"componentType" : 5123,
			"count" : 15366,
			"max" : 
			[
				10587
			],
			"min" : 
			[
				0
			],
			"name" : "accessor_indices_0_m0-PolyPaper23_-181310",
			"type" : "SCALAR"
		},
		{
			"bufferView" : 0,
			"byteOffset" : 30732,
			"componentType" : 5123,
			"count" : 996,
			"max" : 
			[
				683
			],
			"min" : 
			[
				0
			],
			"name" : "accessor_indices_0_m1-PolyGlass24_-181316",
			"type" : "SCALAR"
		},
		{
			"bufferView" : 0,
			"byteOffset" : 32724,
			"componentType" : 5123,
			"count" : 5802,
			"max" : 
			[
				3831
			],
			"min" : 
			[
				0
			],
			"name" : "accessor_indices_0_m2-PolyPaper17_-181322",
			"type" : "SCALAR"
		},
		{
			"bufferView" : 0,
			"byteOffset" : 44328,
			"componentType" : 5123,
			"count" : 4800,
			"max" : 
			[
				3195
			],
			"min" : 
			[
				0
			],
			"name" : "accessor_indices_0_m3-PolyPaper11_-181328",
			"type" : "SCALAR"
		},
		{
			"bufferView" : 1,
			"byteOffset" : 127056,
			"componentType" : 5126,
			"count" : 10588,
			"max" : 
			[
				1,
				1,
				1
			],
			"min" : 
			[
				-1,
				-1,
				-1
			],
			"name" : "accessor_normal_m0-PolyPaper23_-181310",
			"type" : "VEC3"
		},
		{
			"bufferView" : 1,
			"byteOffset" : 262320,
			"componentType" : 5126,
			"count" : 684,
			"max" : 
			[
				1,
				1,
				1
			],
			"min" : 
			[
				-1,
				-1,
				-1
			],
			"name" : "accessor_normal_m1-PolyGlass24_-181316",
			"type" : "VEC3"
		},
		{
			"bufferView" : 1,
			"byteOffset" : 316512,
			"componentType" : 5126,
			"count" : 3832,
			"max" : 
			[
				1,
				1,
				1
			],
			"min" : 
			[
				-1,
				-1,
				-1
			],
			"name" : "accessor_normal_m2-PolyPaper17_-181322",
			"type" : "VEC3"
		},
		{
			"bufferView" : 1,
			"byteOffset" : 400848,
			"componentType" : 5126,
			"count" : 3196,
			"max" : 
			[
				1,
				1,
				1
			],
			"min" : 
			[
				-1,
				-1,
				-1
			],
			"name" : "accessor_normal_m3-PolyPaper11_-181328",
			"type" : "VEC3"
		},
		{
			"bufferView" : 1,
			"byteOffset" : 0,
			"componentType" : 5126,
			"count" : 10588,
			"max" : 
			[
				2.620039,
				2.719956,
				4.900018
			],
			"min" : 
			[
				-4.399962,
				-2.250044,
				-2.884982
			],
			"name" : "accessor_position_m0-PolyPaper23_-181310",
			"type" : "VEC3"
		},
		{
			"bufferView" : 1,
			"byteOffset" : 254112,
			"componentType" : 5126,
			"count" : 684,
			"max" : 
			[
				0.5850499,
				0.1600742,
				-0.1800122
			],
			"min" : 
			[
				-0.8600225,
				-0.3319974,
				-0.9000817
			],
			"name" : "accessor_position_m1-PolyGlass24_-181316",
			"type" : "VEC3"
		},
		{
			"bufferView" : 1,
			"byteOffset" : 270528,
			"componentType" : 5126,
			"count" : 3832,
			"max" : 
			[
				2.129977,
				2.17001,
				4.429955
			],
			"min" : 
			[
				-3.950022,
				-2.02999,
				-1.640045
			],
			"name" : "accessor_position_m2-PolyPaper17_-181322",
			"type" : "VEC3"
		},
		{
			"bufferView" : 1,
			"byteOffset" : 362496,
			"componentType" : 5126,
			"count" : 3196,
			"max" : 
			[
				0.6200657000000001,
				0.6973707,
				0.07933946
			],
			"min" : 
			[
				-0.8700498,
				-1.890067,
				-1.660091
			],
			"name" : "accessor_position_m3-PolyPaper11_-181328",
			"type" : "VEC3"
		}
	],
	"asset" : 
	{
		"copyright" : "Unknown",
		"generator" : "glTF 1-to-2 Upgrader for Google Blocks",
		"version" : "2.0"
	},
	"bufferViews" : 
	[
		{
			"buffer" : 0,
			"byteLength" : 53928,
			"byteOffset" : 0,
			"name" : "ushortBufferView",
			"target" : 34963
		},
		{
			"buffer" : 0,
			"byteLength" : 439200,
			"byteOffset" : 53928,
			"byteStride" : 12,
			"name" : "vec3BufferView",
			"target" : 34962
		},
		{
			"buffer" : 0,
			"byteLength" : 292800,
			"byteOffset" : 493128,
			"byteStride" : 16,
			"name" : "vec4BufferView",
			"target" : 34962
		}
	],
	"buffers" : 
	[
		{
			"byteLength" : 785928,
			"name" : "model",
			"uri" : "model.bin"
		}
	],
	"materials" : 
	[
		{
			"alphaMode" : "OPAQUE",
			"doubleSided" : false,
			"name" : "BlocksPaper",
			"pbrMetallicRoughness" : 
			{
				"baseColorFactor" : 
				[
					1,
					1,
					1,
					1
				],
				"metallicFactor" : 0,
				"roughnessFactor" : 0.6
			}
		},
		{
			"alphaMode" : "BLEND",
			"doubleSided" : false,
			"name" : "BlocksGlass",
			"pbrMetallicRoughness" : 
			{
				"baseColorFactor" : 
				[
					0.2,
					0.2,
					1,
					0.3
				],
				"metallicFactor" : 1,
				"roughnessFactor" : 0.4
			}
		},
		{
			"alphaMode" : "OPAQUE",
			"doubleSided" : true,
			"name" : "BlocksGem",
			"pbrMetallicRoughness" : 
			{
				"baseColorFactor" : 
				[
					1,
					0.4,
					1,
					1
				],
				"metallicFactor" : 0,
				"roughnessFactor" : 0.1
			}
		}
	],
	"meshes" : 
	[
		{
			"name" : "mesh_m0-PolyPaper23_-181310",
			"primitives" : 
			[
				{
					"attributes" : 
					{
						"COLOR_0" : 0,
						"NORMAL" : 8,
						"POSITION" : 12
					},
					"indices" : 4,
					"material" : 0,
					"mode" : 4
				}
			]
		},
		{
			"name" : "mesh_m1-PolyGlass24_-181316",
			"primitives" : 
			[
				{
					"attributes" : 
					{
						"COLOR_0" : 1,
						"NORMAL" : 9,
						"POSITION" : 13
					},
					"indices" : 5,
					"material" : 1,
					"mode" : 4
				}
			]
		},
		{
			"name" : "mesh_m2-PolyPaper17_-181322",
			"primitives" : 
			[
				{
					"attributes" : 
					{
						"COLOR_0" : 2,
						"NORMAL" : 10,
						"POSITION" : 14
					},
					"indices" : 6,
					"material" : 0,
					"mode" : 4
				}
			]
		},
		{
			"name" : "mesh_m3-PolyPaper11_-181328",
			"primitives" : 
			[
				{
					"attributes" : 
					{
						"COLOR_0" : 3,
						"NORMAL" : 11,
						"POSITION" : 15
					},
					"indices" : 7,
					"material" : 0,
					"mode" : 4
				}
			]
		}
	],
	"nodes" : 
	[
		{
			"matrix" : 
			[
				1,
				0,
				0,
				0,
				0,
				1,
				0,
				0,
				0,
				0,
				1,
				0,
				0,
				0,
				0,
				1
			],
			"mesh" : 3,
			"name" : "node_MeshObject-1225329664-PolyPaper11"
		},
		{
			"matrix" : 
			[
				1,
				0,
				0,
				0,
				0,
				1,
				0,
				0,
				0,
				0,
				1,
				0,
				0,
				0,
				0,
				1
			],
			"mesh" : 2,
			"name" : "node_MeshObject-1797408768-PolyPaper17"
		},
		{
			"matrix" : 
			[
				1,
				0,
				0,
				0,
				0,
				1,
				0,
				0,
				0,
				0,
				1,
				0,
				0,
				0,
				0,
				1
			],
			"mesh" : 0,
			"name" : "node_MeshObject1353400320-PolyPaper23"
		},
		{
			"matrix" : 
			[
				1,
				0,
				0,
				0,
				0,
				1,
				0,
				0,
				0,
				0,
				1,
				0,
				0,
				0,
				0,
				1
			],
			"mesh" : 1,
			"name" : "node_MeshObject1925479424-PolyGlass24"
		}
	],
	"scene" : 0,
	"scenes" : 
	[
		{
			"extras" : {},
			"name" : "defaultScene",
			"nodes" : 
			[
				2,
				3,
				1,
				0
			]
		}
	]
}