{
	"accessors" : 
	[
		{
			"bufferView" : 2,
			"byteOffset" : 0,
			"componentType" : 5126,
			"count" : 18308,
			"max" : 
			[
				0.1939721703529358,
				0.1011451631784439,
				0.1275297701358795,
				1
			],
			"min" : 
			[
				0.006584956776350737,
				0.006584956776350737,
				0.006584956776350737,
				1
			],
			"name" : "accessor_color_m0-PolyPaper20_-46848",
			"type" : "VEC4"
		},
		{
			"bufferView" : 2,
			"byteOffset" : 292928,
			"componentType" : 5126,
			"count" : 7900,
			"max" : 
			[
				0.1939721703529358,
				0.1011451631784439,
				0.1275297701358795,
				1
			],
			"min" : 
			[
				0.006584956776350737,
				0.006584956776350737,
				0.006584956776350737,
				1
			],
			"name" : "accessor_color_m1-PolyPaper17_-46854",
			"type" : "VEC4"
		},
		{
			"bufferView" : 0,
			"byteOffset" : 0,
			"componentType" : 5123,
			"count" : 27462,
			"max" : 
			[
				18307
			],
			"min" : 
			[
				0
			],
			"name" : "accessor_indices_0_m0-PolyPaper20_-46848",
			"type" : "SCALAR"
		},
		{
			"bufferView" : 0,
			"byteOffset" : 54924,
			"componentType" : 5123,
			"count" : 11850,
			"max" : 
			[
				7899
			],
			"min" : 
			[
				0
			],
			"name" : "accessor_indices_0_m1-PolyPaper17_-46854",
			"type" : "SCALAR"
		},
		{
			"bufferView" : 1,
			"byteOffset" : 219696,
			"componentType" : 5126,
			"count" : 18308,
			"max" : 
			[
				0.9999893,
				0.9996119,
				0.9998798
			],
			"min" : 
			[
				-0.9999626,
				-0.9996119,
				-0.9997575
			],
			"name" : "accessor_normal_m0-PolyPaper20_-46848",
			"type" : "VEC3"
		},
		{
			"bufferView" : 1,
			"byteOffset" : 534192,
			"componentType" : 5126,
			"count" : 7900,
			"max" : 
			[
				0.999467,
				0.9996591,
				0.9997121
			],
			"min" : 
			[
				-0.9992844,
				-0.9996591,
				-0.9996214
			],
			"name" : "accessor_normal_m1-PolyPaper17_-46854",
			"type" : "VEC3"
		},
		{
			"bufferView" : 1,
			"byteOffset" : 0,
			"componentType" : 5126,
			"count" : 18308,
			"max" : 
			[
				0.4029028,
				2.24831,
				-0.1996212
			],
			"min" : 
			[
				-0.3434163,
				0.9057978,
				-0.8324266
			],
			"name" : "accessor_position_m0-PolyPaper20_-46848",
			"type" : "VEC3"
		},
		{
			"bufferView" : 1,
			"byteOffset" : 439392,
			"componentType" : 5126,
			"count" : 7900,
			"max" : 
			[
				0.5503670000000001,
				2.15619,
				-0.1683924
			],
			"min" : 
			[
				-0.4450093,
				0.8950622,
				-0.9723276
			],
			"name" : "accessor_position_m1-PolyPaper17_-46854",
			"type" : "VEC3"
		}
	],
	"asset" : 
	{
		"copyright" : "Unknown",
		"generator" : "glTF 1-to-2 Upgrader for Google Blocks",
		"version" : "2.0"
	},
	"bufferViews" : 
	[
		{
			"buffer" : 0,
			"byteLength" : 78624,
			"byteOffset" : 0,
			"name" : "ushortBufferView",
			"target" : 34963
		},
		{
			"buffer" : 0,
			"byteLength" : 628992,
			"byteOffset" : 78624,
			"byteStride" : 12,
			"name" : "vec3BufferView",
			"target" : 34962
		},
		{
			"buffer" : 0,
			"byteLength" : 419328,
			"byteOffset" : 707616,
			"byteStride" : 16,
			"name" : "vec4BufferView",
			"target" : 34962
		}
	],
	"buffers" : 
	[
		{
			"byteLength" : 1126944,
			"name" : "model",
			"uri" : "model.bin"
		}
	],
	"materials" : 
	[
		{
			"alphaMode" : "OPAQUE",
			"doubleSided" : false,
			"name" : "BlocksPaper",
			"pbrMetallicRoughness" : 
			{
				"baseColorFactor" : 
				[
					1,
					1,
					1,
					1
				],
				"metallicFactor" : 0,
				"roughnessFactor" : 0.6
			}
		},
		{
			"alphaMode" : "BLEND",
			"doubleSided" : false,
			"name" : "BlocksGlass",
			"pbrMetallicRoughness" : 
			{
				"baseColorFactor" : 
				[
					0.2,
					0.2,
					1,
					0.3
				],
				"metallicFactor" : 1,
				"roughnessFactor" : 0.4
			}
		},
		{
			"alphaMode" : "OPAQUE",
			"doubleSided" : true,
			"name" : "BlocksGem",
			"pbrMetallicRoughness" : 
			{
				"baseColorFactor" : 
				[
					1,
					0.4,
					1,
					1
				],
				"metallicFactor" : 0,
				"roughnessFactor" : 0.1
			}
		}
	],
	"meshes" : 
	[
		{
			"name" : "mesh_m0-PolyPaper20_-46848",
			"primitives" : 
			[
				{
					"attributes" : 
					{
						"COLOR_0" : 0,
						"NORMAL" : 4,
						"POSITION" : 6
					},
					"indices" : 2,
					"material" : 0,
					"mode" : 4
				}
			]
		},
		{
			"name" : "mesh_m1-PolyPaper17_-46854",
			"primitives" : 
			[
				{
					"attributes" : 
					{
						"COLOR_0" : 1,
						"NORMAL" : 5,
						"POSITION" : 7
					},
					"indices" : 3,
					"material" : 0,
					"mode" : 4
				}
			]
		}
	],
	"nodes" : 
	[
		{
			"matrix" : 
			[
				1,
				0,
				0,
				0,
				0,
				1,
				0,
				0,
				0,
				0,
				1,
				0,
				0,
				0,
				0,
				1
			],
			"mesh" : 1,
			"name" : "node_MeshObject-1524950016-PolyPaper17"
		},
		{
			"matrix" : 
			[
				1,
				0,
				0,
				0,
				0,
				1,
				0,
				0,
				0,
				0,
				1,
				0,
				0,
				0,
				0,
				1
			],
			"mesh" : 0,
			"name" : "node_MeshObject-2097029120-PolyPaper20"
		}
	],
	"scene" : 0,
	"scenes" : 
	[
		{
			"extras" : {},
			"name" : "defaultScene",
			"nodes" : 
			[
				1,
				0
			]
		}
	]
}